<svg width="30" height="30" viewBox="0 0 30 30" fill="none" xmlns="http://www.w3.org/2000/svg">
<path d="M30 3.74997H5.3025L5.25 3.31122C5.14256 2.39925 4.70423 1.5584 4.01811 0.948089C3.33199 0.337776 2.44578 0.000427238 1.5275 0L0 0V2.49998H1.5275C1.83367 2.50002 2.12917 2.61242 2.35796 2.81587C2.58676 3.01932 2.73293 3.29966 2.76875 3.60372L4.75 20.4386C4.85744 21.3505 5.29577 22.1914 5.98189 22.8017C6.66801 23.412 7.55422 23.7494 8.4725 23.7498H25V21.2498H8.4725C8.16614 21.2497 7.87048 21.1372 7.64166 20.9335C7.41283 20.7298 7.26679 20.4491 7.23125 20.1448L7.0675 18.7498H27.295L30 3.74997ZM25.205 16.2499H6.77375L5.5975 6.24994H27.0088L25.205 16.2499Z" fill="white"/>
<path d="M8.75 30C10.1307 30 11.25 28.8807 11.25 27.5C11.25 26.1193 10.1307 25 8.75 25C7.36929 25 6.25 26.1193 6.25 27.5C6.25 28.8807 7.36929 30 8.75 30Z" fill="white"/>
<path d="M21.25 30C22.6307 30 23.75 28.8807 23.75 27.5C23.75 26.1193 22.6307 25 21.25 25C19.8693 25 18.75 26.1193 18.75 27.5C18.75 28.8807 19.8693 30 21.25 30Z" fill="white"/>
</svg>
